<?xml version="1.0" encoding="UTF-8" standalone="no"?>
<!DOCTYPE svg PUBLIC "-//W3C//DTD SVG 1.1//EN" "http://www.w3.org/Graphics/SVG/1.1/DTD/svg11.dtd">
<svg width="100%" height="100%" viewBox="0 0 116 237" version="1.1" xmlns="http://www.w3.org/2000/svg" xmlns:xlink="http://www.w3.org/1999/xlink" xml:space="preserve" xmlns:serif="http://www.serif.com/" style="fill-rule:evenodd;clip-rule:evenodd;stroke-linejoin:round;stroke-miterlimit:2;">
    <g transform="matrix(1,0,0,1,-345,-19)">
        <g transform="matrix(0.710248,-0.202158,0.208788,0.733543,234.374,51.38)">
            <path d="M284.5,39.5L303.5,39.5L303.5,48.5C294.777,50.241 286.443,53.074 278.5,57C279.765,58.337 280.265,59.837 280,61.5C275.241,63.795 270.408,65.962 265.5,68C264.87,69.892 263.87,71.559 262.5,73C243.523,81.822 224.857,91.155 206.5,101C215.737,99.726 225.07,98.892 234.5,98.5C243.166,98.929 251.832,99.262 260.5,99.5L260.5,103.5C263.85,103.335 267.183,103.502 270.5,104C271.798,108.294 274.465,111.294 278.5,113C280.488,118.649 280.988,124.482 280,130.5C277.768,135.965 274.768,140.965 271,145.5C261.674,155.396 251.508,164.229 240.5,172C209.442,202.743 175.775,230.076 139.5,254C132.748,256.39 126.082,258.723 119.5,261C114.34,259.671 111.006,256.505 109.5,251.5C109.529,249.971 110.196,248.804 111.5,248C108.793,246.136 107.959,243.636 109,240.5C134.596,219.568 160.763,199.401 187.5,180C204.281,165.853 220.781,151.353 237,136.5C237.977,134.26 238.477,131.927 238.5,129.5C223.646,130.258 209.312,133.424 195.5,139C192.243,140.043 188.91,140.543 185.5,140.5L185.5,135.5C180.827,136.491 177.494,134.824 175.5,130.5C163.238,126.065 159.404,117.732 164,105.5C171.087,92.078 181.254,81.578 194.5,74C212.591,63.122 231.591,54.122 251.5,47C262.604,44.304 273.604,41.804 284.5,39.5Z" style="fill:rgb(2,2,2);"/>
        </g>
        <g transform="matrix(0.29961,-0.53038,0.578482,0.326783,147.636,442.3)">
            <path d="M583.5,49.5C584.496,49.414 585.329,49.748 586,50.5C588.072,53.971 589.572,57.638 590.5,61.5L587.5,61.5C587.66,63.199 587.494,64.866 587,66.5C581.251,70.292 575.418,73.958 569.5,77.5C568.957,81.552 566.957,84.718 563.5,87C551.701,92.397 540.701,99.064 530.5,107C519.685,111.905 509.352,117.572 499.5,124C527.161,135.664 554.161,148.664 580.5,163C581.725,166.346 581.058,169.346 578.5,172C579.667,173.167 580.833,174.333 582,175.5C584.595,180.186 586.761,185.019 588.5,190C588.666,193.439 586.999,195.439 583.5,196C577.669,195.103 571.669,194.437 565.5,194C527.826,173.829 489.159,155.829 449.5,140C442.193,137.332 436.026,133.166 431,127.5C430.333,125.833 430.333,124.167 431,122.5C434.883,118.95 439.049,115.783 443.5,113C481.892,90.637 521.559,70.637 562.5,53C567.664,50.202 572.83,50.035 578,52.5C580.12,51.86 581.954,50.86 583.5,49.5Z" style="fill:rgb(2,2,2);"/>
        </g>
    </g>
</svg>
